<svg xmlns="http://www.w3.org/2000/svg" viewBox="52 116 537 230" fill="#1976D2">
  <g transform="translate(0, 462) scale(1, -1)">
    <path d="M333.374 285.224c-32.867 1.541-204.227 5.897-280.524-27.139 20.643-12.195 42.733-24.815 68.737-38.53 75.547 35.359 173.666 48.157 263.796 53.071v2.278c-17.479 2.167-36.889 5.897-52.009 10.32z"/>
    <path d="M410.422 271.353c-67.665-6.745-187.445-26.357-255.699-68.862 24.824-12.464 50.775-24.86 76.672-36.386 71.9 61.246 166.91 88.43 263.796 107.482v2.234c-24.61-2.904-61.82-4.669-84.769-4.468z"/>
    <path d="M267.103 150.76c32.76-13.536 66.593-25.999 95.439-34.309 34.744 69.064 97.583 123.855 213.396 174.044v2.279c-148.734-40.675-241.813-69.801-308.835-142.014"/>
    <polygon points="280.347,328.065 268.283,306.779 253.806,306.779 241.582,328.065 236.488,306.779 221.314,306.779 231.287,339.769 248.069,339.769 261.045,317.187 274.074,339.769 290.695,339.769 300.668,306.779 285.44,306.779"/>
    <path d="M171.719 339.769l-22.412-32.99h15.12l3.431 5.696h23.431l3.378-5.696h16.675l-22.412 32.99h-17.211zm-.054-20.884l7.882 13.245 7.935-13.245h-15.817z"/>
    <path d="M463.878 339.769l-22.412-32.99h15.12l3.378 5.696h23.484l3.378-5.696h16.675l-22.412 32.99h-17.211zm-.054-20.884l7.882 13.245 7.935-13.245h-15.817z"/>
    <polygon points="531.811,322.369 531.811,306.779 516.369,306.779 516.369,339.769 531.811,339.769 531.811,325.318 549.879,339.769 568.592,339.769 547.788,324 570.039,306.779 549.879,306.779"/>
    <path d="M413.478 306.779l17.479 0-11.581 12.62c6.38 1.586 9.061 5.383 9.061 9.694 0 5.07-3.592 7.795-8.686 9.18-5.308 1.452-12.332 1.497-18.98 1.497h-23.646v-32.99h15.281v9.917h13.19l7.882-9.918zm-21.072 26.446s7.185 0 9.651 0c7.882 0 11.099-1.519 11.099-4.87 0-2.68-2.145-4.31-4.826-4.914-1.984-.447-3.753-.537-6.809-.537h-9.115v10.321z"/>
    <polygon points="343.132,332.22 343.132,306.779 327.637,306.779 327.637,332.22 307.638,332.22 309.354,339.769 363.4,339.769 361.684,332.22"/>
  </g>
</svg>
