<svg xmlns="http://www.w3.org/2000/svg" viewBox="0 0 200 140">
  <rect x="0.857" y="0.938" fill="#007AC3" width="198.143" height="138.481"/>
  <rect x="15.866" y="15.402" fill="#FFFFFF" width="168.315" height="109.01"/>
  <rect x="30.65" y="30.072" fill="#ED1B2E" width="138.487" height="79.549"/>
  <polyline fill="#007AC3" points="181.469,70.48 159.457,54.342 159.457,63.398 40.922,63.398 40.922,54.342 18.911,70.48 40.922,86.923 40.922,77.644 159.457,77.644 159.457,86.923"/>
  <path fill="#FFFFFF" d="M96.006,101.054c3.378-10.919,5.202-22.229,6.63-33.538c-2.34,2.856-27.298,30.934-30.55,34.834l-2.856-1.95 c2.988-16.505,6.629-31.066,6.629-45.364c0-3.251-0.521-7.931-4.68-7.931c-3.642,0-7.409,3.383-10.403,5.202l-1.296-1.56 c3.51-3.642,13.907-11.567,18.587-11.567c6.114,0,6.888,8.189,6.888,12.737c0,12.869-1.95,25.606-4.806,37.954 c8.189-8.448,15.725-18.587,23.267-28.985c0-5.591,0.779-14.039-4.158-14.039c-2.73,0-7.151,3.252-9.359,4.548l-1.044-1.56 c3.384-3.51,11.963-10.655,16.769-10.655c6.888,0,6.888,8.969,6.888,14.039c0,5.718-2.598,25.475-5.327,37.432 c11.051-5.07,25.222-24.047,25.222-36.652c0-3.383-1.302-7.799-5.333-7.799c-2.988,0-6.888,2.73-9.485,4.158l-1.038-1.95 c3.246-2.466,13.253-9.228,16.763-9.228c5.981,0,8.189,6.24,8.189,11.177c0,20.015-32.367,42.64-42.897,51.993"/>
  <rect x="88.046" y="63.381" fill="#007AC3" width="24.368" height="14.217"/>
</svg>
