<svg xmlns="http://www.w3.org/2000/svg" viewBox="0 0 200.4 96.12">
  <rect width="200.4" height="96.12" fill="#003DA5" rx="2"/>
  <g transform="matrix(1.3333333,0,0,-1.3333333,0,96.1236)" fill="#FFFFFF">
    <path transform="translate(65.271,71.669)" d="m0 0v-3.239h81.456v-53.649h-142.302v11.074h-3.21v-14.312h148.697v60.109z" fill="none" stroke="#FFD100" stroke-width="2"/>
    <path d="m1.211 42.0807h4.413l4.845-5.557c0.4-0.52 0.749-0.956 0.999-1.477h0.083v7.034h3.847v-11.918h-4.163l-5.062 5.556c-0.283 0.352-0.849 1.091-1.016 1.511h-0.083v-7.067h-3.863zm21.013-7.99-5.745 7.99h4.729l2.764-4.348c0.317-0.436 0.383-0.587 0.433-0.722h0.034c0.05 0.135 0.116 0.286 0.433 0.722l2.913 4.348h4.446l-5.744-7.99v-3.928h-4.263zm14.502 7.99h4.412l4.846-5.557c0.4-0.52 0.749-0.956 0.999-1.477h0.083v7.034h3.847v-11.918h-4.163l-5.062 5.556c-0.283 0.352-0.849 1.091-1.016 1.511h-0.083v-7.067h-3.863zm17.982-12.12c-0.866 0-1.715 0.067-2.314 0.202v3.172c0.366-0.05 0.766-0.084 1.132-0.084 1.182 0 2.231 0.353 2.231 2.015v6.815h4.247v-7.638c0-3.458-2.465-4.482-5.296-4.482m-39.955 37.634c0-2.67-2.015-4.365-5.162-4.365h-4.113v-3.475h-4.262v11.919h8.292c3.297 0 5.245-1.511 5.245-4.079m-4.496-0.135c0 0.974-0.633 1.477-1.832 1.477h-2.947v-2.971h2.931c1.182 0 1.848 0.521 1.848 1.494m5.544-1.746c0 3.912 3.114 6.379 8.026 6.379 4.895 0 8.009-2.467 8.009-6.379 0-3.911-3.114-6.378-8.009-6.378-4.912 0-8.026 2.467-8.026 6.378m11.539 0c0 1.964-1.382 3.274-3.513 3.274-2.132 0-3.53-1.31-3.53-3.274s1.398-3.256 3.53-3.256c2.131 0 3.513 1.292 3.513 3.256m12.804-2.064h-2.481v-3.895h-4.263v11.919h8.276c4.079 0 5.262-1.981 5.262-3.912 0-1.343-0.616-2.87-2.465-3.609l2.864-4.398h-4.695zm-2.481 2.568h2.997c1.365 0 1.782 0.638 1.782 1.393 0 0.722-0.433 1.326-1.765 1.326h-3.014zm23.361 2.182h-4.562v-8.645h-4.246v8.645h-4.546v3.274h13.354zm-49.984-21.064h-5.545l-0.916-2.266h-4.579l5.495 11.919h5.528l5.495-11.919h-4.562zm-1.033 2.585-0.832 2.065c-0.483 1.125-0.75 1.796-0.883 2.568h-0.05c-0.149-0.772-0.416-1.443-0.882-2.568l-0.833-2.065zm10.873 7.068v-6.144c0-1.78 0.949-2.888 2.864-2.888 1.798 0 2.847 1.125 2.847 2.888v6.144h4.263v-6.665c0-3.458-2.514-5.674-7.11-5.674s-7.127 2.25-7.127 5.724v6.615zm25.143-3.274h-4.563v-8.645h-4.246v8.645h-4.546v3.274h13.355zm15.984-8.645h-4.246v4.583h-5.695v-4.583h-4.263v11.919h4.263v-4.483h5.695v4.483h4.246zm1.564 5.959c0 3.911 3.114 6.379 8.026 6.379 4.896 0 8.01-2.468 8.01-6.379s-3.114-6.379-8.01-6.379c-4.912 0-8.026 2.468-8.026 6.379m11.54 0c0 1.964-1.383 3.274-3.514 3.274s-3.53-1.31-3.53-3.274 1.399-3.256 3.53-3.256 3.514 1.292 3.514 3.256m12.803-2.064h-2.481v-3.895h-4.262v11.919h8.275c4.08 0 5.262-1.981 5.262-3.912 0-1.343-0.616-2.87-2.464-3.609l2.864-4.398h-4.696zm-2.481 2.568h2.998c1.365 0 1.781 0.638 1.781 1.393 0 0.722-0.433 1.326-1.765 1.326h-3.014zm11.306 5.456h4.263v-11.918h-4.263zm19.082-3.274h-4.563v-8.645h-4.246v8.645h-4.546v3.274h13.355zm6.326-4.717-5.744 7.991h4.729l2.764-4.348c0.316-0.437 0.383-0.588 0.433-0.722h0.033c0.05 0.134 0.116 0.285 0.433 0.722l2.914 4.348h4.446l-5.745-7.991v-3.928h-4.263z"/>
    <path d="m4.384 8.2693-3.683-7.988h3.069l0.614 1.519h3.716l0.614-1.519h3.058l-3.683 7.988zm0.692-4.736 0.558 1.383c0.312 0.754 0.491 1.204 0.591 1.722h0.034c0.089-0.518 0.268-0.968 0.591-1.722l0.558-1.383z"/>
    <path d="m12.7 0.281h2.857v7.988h-2.857z"/>
    <path d="m26.3723 5.648c0 1.294-0.792 2.621-3.527 2.621h-5.546v-7.988h2.857v2.61h1.663l1.674-2.61h3.147l-1.92 2.948c1.239 0.495 1.652 1.519 1.652 2.419m-4.207-1.035h-2.009v1.822h2.02c0.893 0 1.183-0.405 1.183-0.888 0-0.507-0.279-0.934-1.194-0.934"/>
    <path d="m35.3588 8.2693h-2.857v-7.988h7.857v2.205h-5z"/>
    <path d="m44.6903 8.2693-3.683-7.988h3.069l0.614 1.519h3.716l0.614-1.519h3.058l-3.683 7.988zm0.692-4.736 0.558 1.383c0.312 0.754 0.491 1.204 0.591 1.722h0.034c0.089-0.518 0.268-0.968 0.591-1.722l0.558-1.383z"/>
    <path d="m59.9372 4.7929v-1.238h-0.056c-0.167 0.349-0.402 0.642-0.669 0.99l-3.248 3.724h-2.957v-7.988h2.589v4.737h0.055c0.112-0.281 0.492-0.776 0.681-1.013l3.393-3.724h2.79v7.988h-2.578z"/>
    <path d="m69.5928 8.2693h-5.323v-7.988h5.256c2.89 0 4.821 1.688 4.821 4.129 0 2.464-1.786 3.859-4.754 3.859m-0.536-6.12h-1.93v4.264h1.997c1.317 0 2.21-0.754 2.21-2.059 0-1.35-0.859-2.205-2.277-2.205"/>
    <path d="m89.0141 5.648c0 1.294-0.792 2.621-3.527 2.621h-5.546v-7.988h2.857v2.61h1.663l1.674-2.61h3.147l-1.92 2.948c1.239 0.495 1.652 1.519 1.652 2.419m-4.207-1.035h-2.009v1.822h2.02c0.893 0 1.183-0.405 1.183-0.888 0-0.507-0.279-0.934-1.194-0.934"/>
    <path d="m93.4577 8.2693-3.683-7.988h3.069l0.614 1.519h3.716l0.614-1.519h3.058l-3.683 7.988zm0.692-4.736 0.558 1.383c0.312 0.754 0.491 1.204 0.591 1.722h0.034c0.089-0.518 0.268-0.968 0.591-1.722l0.558-1.383z"/>
    <path d="m101.774 0.281h2.857v7.988h-2.857z"/>
    <path d="m109.2301 8.2693h-2.857v-7.988h7.857v2.205h-5z"/>
    <path d="m125.4735 5.333-2.042 0.202c-0.793 0.09-1.027 0.214-1.027 0.529 0 0.371 0.502 0.563 1.451 0.563 1.306 0 2.522-0.405 3.18-0.99l1.574 1.687c-1.206 0.855-2.857 1.227-4.598 1.227-2.812 0-4.419-0.979-4.419-2.611 0-1.552 0.982-2.295 2.99-2.542l2.367-0.281c0.669-0.079 0.87-0.192 0.87-0.495 0-0.428-0.558-0.653-1.741-0.653-1.373 0-2.611 0.608-3.382 1.305l-1.841-1.62c0.959-0.934 2.946-1.654 5.056-1.654 2.979 0 4.765 1.046 4.765 2.903 0 1.53-0.915 2.194-3.203 2.43"/>
    <path d="m133.0566 3.4202h5.234v1.778h-5.234v1.136h5.424v1.935h-8.281v-7.988h8.359v1.935h-5.502z"/>
    <path d="m146.6171 8.2693h-3.705l-3.683-7.988h3.069l0.614 1.519h3.716l0.614-1.519h3.058zm-3.013-4.736 0.558 1.383c0.312 0.754 0.491 1.204 0.591 1.722h0.034c0.089-0.518 0.268-0.968 0.591-1.722l0.558-1.383z"/>
  </g>
</svg>
