<svg xmlns="http://www.w3.org/2000/svg" viewBox="0 0 104 75" fill="#0095D3">
  <path d="M75.297.792s-.994 4.245-1.209 5.174c-1.151 0-50.824 0-50.824 0-13.046 0-15.146 9.957-15.167 10.056.007-.029-6.489 26.344-6.489 26.344l-.292 1.187L32.517 35.9l.094-.456c.039-.179 3.719-17.75 4.817-21.155.621-1.926 2.194-2.02 3.75-1.952l.441.014c0 0 29.191 0 30.953 0-.307 1.308-1.475 6.282-1.475 6.282l33.195-9.055L75.479 0l-.182.792"/>
  <path d="M101.033 12.585l-30.545 8.741-.099.427c-.039.171-4.016 17.456-4.72 20.882-.394 1.916-1.588 2.02-3.369 1.964l-.82-.007c-.57.02-20.154.007-31.235 0 .333-1.322 1.581-6.279 1.581-6.279L0 46.195l22.956 28.716s5.386-22.943 5.64-24.029c1.149 0 51.258 0 51.258 0 13.645 0 15.412-9.248 15.537-10.054.012-.053 6.861-28.595 6.861-28.595l-1.219-1.648"/>
</svg>
